<?xml version="1.0" encoding="UTF-8" standalone="no"?>
<svg
   xmlns:dc="http://purl.org/dc/elements/1.1/"
   xmlns:cc="http://creativecommons.org/ns#"
   xmlns:rdf="http://www.w3.org/1999/02/22-rdf-syntax-ns#"
   xmlns:svg="http://www.w3.org/2000/svg"
   xmlns="http://www.w3.org/2000/svg"
   xmlns:sodipodi="http://sodipodi.sourceforge.net/DTD/sodipodi-0.dtd"
   xmlns:inkscape="http://www.inkscape.org/namespaces/inkscape"
   version="1.1"
   width="16.2331cm"
   height="13.1928cm"
   viewBox="0 0 63910 51940 "
   id="svg740"
   sodipodi:docname="redox_rev1-top.svg"
   inkscape:version="0.92.2 5c3e80d, 2017-08-06">
  <metadata
     id="metadata746">
    <rdf:RDF>
      <cc:Work
         rdf:about="">
        <dc:format>image/svg+xml</dc:format>
        <dc:type
           rdf:resource="http://purl.org/dc/dcmitype/StillImage" />
      </cc:Work>
    </rdf:RDF>
  </metadata>
  <defs
     id="defs744" />
  <sodipodi:namedview
     pagecolor="#ffffff"
     bordercolor="#666666"
     borderopacity="1"
     objecttolerance="10"
     gridtolerance="10"
     guidetolerance="10"
     inkscape:pageopacity="0"
     inkscape:pageshadow="2"
     inkscape:window-width="1543"
     inkscape:window-height="913"
     id="namedview742"
     showgrid="false"
     showguides="true"
     inkscape:guide-bbox="true"
     inkscape:measure-start="0,0"
     inkscape:measure-end="0,0"
     inkscape:zoom="2.1221115"
     inkscape:cx="325.06484"
     inkscape:cy="480.18024"
     inkscape:window-x="0"
     inkscape:window-y="0"
     inkscape:window-maximized="0"
     inkscape:current-layer="svg740">
    <sodipodi:guide
       position="9791.6899,2499.9925"
       orientation="0,1"
       id="guide834"
       inkscape:locked="false" />
    <sodipodi:guide
       position="15118.626,49233.444"
       orientation="0,1"
       id="guide836"
       inkscape:locked="false" />
    <sodipodi:guide
       position="6303.4337,9027.7508"
       orientation="0,1"
       id="guide838"
       inkscape:locked="false" />
    <sodipodi:guide
       position="53496,35360.289"
       orientation="1,0"
       id="guide840"
       inkscape:locked="false" />
  </sodipodi:namedview>
  <title
     id="title398">SVG Picture created as redox_rev2-brd.svg date 2018/05/19 09:41:39 </title>
  <desc
     id="desc400">Picture generated by PCBNEW </desc>
  <g
     style="fill:#000000; fill-opacity:1;stroke:#000000; stroke-opacity:1; stroke-linecap:round; stroke-linejoin:round; "
     transform="translate(0 0) scale(1 1)"
     id="g402" />
  <g
     style="fill:#000000; fill-opacity:0.0;  stroke:#000000; stroke-width:-0.000393701; stroke-opacity:1;  stroke-linecap:round; stroke-linejoin:round;"
     id="g404" />
  <g
     style="fill:#000000;fill-opacity:0;stroke:#000000;stroke-width:78.74019623;stroke-linecap:round;stroke-linejoin:round;stroke-opacity:1"
     id="g416"
     transform="translate(0,-2083.3381)">
    <circle
       id="circle406"
       r="667.08301"
       cy="43457.781"
       cx="3685.239" />
    <circle
       cx="53232.312"
       cy="51523.473"
       r="667.08301"
       id="circle408" />
    <circle
       cx="52811.277"
       cy="4097.5566"
       r="667.08301"
       id="circle410" />
    <circle
       cx="2496.24"
       cy="4163.0698"
       r="667.08301"
       id="circle414" />
  </g>
  <g
     style="fill:#000000;fill-opacity:0;stroke:#000000;stroke-width:60;stroke-linecap:round;stroke-linejoin:round;stroke-opacity:1"
     id="g698"
     transform="translate(0,-2083.3381)">
    <path
       d="m 10496,6413 h 5500"
       id="path418"
       inkscape:connector-curvature="0" />
    <path
       d="m 15996,6413 v 5500"
       id="path420"
       inkscape:connector-curvature="0" />
    <path
       d="M 15996,11913 H 10496"
       id="path422"
       inkscape:connector-curvature="0" />
    <path
       d="M 10496,11913 V 6413"
       id="path424"
       inkscape:connector-curvature="0" />
    <path
       d="m 17996,4663 h 5500"
       id="path426"
       inkscape:connector-curvature="0" />
    <path
       d="m 23496,4663 v 5500"
       id="path428"
       inkscape:connector-curvature="0" />
    <path
       d="M 23496,10163 H 17996"
       id="path430"
       inkscape:connector-curvature="0" />
    <path
       d="M 17996,10163 V 4663"
       id="path432"
       inkscape:connector-curvature="0" />
    <path
       d="m 25496,3663 h 5500"
       id="path434"
       inkscape:connector-curvature="0" />
    <path
       d="M 30996,3663 V 9163"
       id="path436"
       inkscape:connector-curvature="0" />
    <path
       d="M 30996,9163 H 25496"
       id="path438"
       inkscape:connector-curvature="0" />
    <path
       d="M 25496,9163 V 3663"
       id="path440"
       inkscape:connector-curvature="0" />
    <path
       d="m 32996,4663 h 5500"
       id="path442"
       inkscape:connector-curvature="0" />
    <path
       d="m 38496,4663 v 5500"
       id="path444"
       inkscape:connector-curvature="0" />
    <path
       d="M 38496,10163 H 32996"
       id="path446"
       inkscape:connector-curvature="0" />
    <path
       d="M 32996,10163 V 4663"
       id="path448"
       inkscape:connector-curvature="0" />
    <path
       d="m 40496,5413 h 5500"
       id="path450"
       inkscape:connector-curvature="0" />
    <path
       d="m 45996,5413 v 5500"
       id="path452"
       inkscape:connector-curvature="0" />
    <path
       d="M 45996,10913 H 40496"
       id="path454"
       inkscape:connector-curvature="0" />
    <path
       d="M 40496,10913 V 5413"
       id="path456"
       inkscape:connector-curvature="0" />
    <path
       d="m 47996,9163 h 5500"
       id="path458"
       inkscape:connector-curvature="0" />
    <path
       d="m 53496,9163 v 5500"
       id="path460"
       inkscape:connector-curvature="0" />
    <path
       d="M 53496,14663 H 47996"
       id="path462"
       inkscape:connector-curvature="0" />
    <path
       d="M 47996,14663 V 9163"
       id="path464"
       inkscape:connector-curvature="0" />
    <path
       d="m 10496,13913 h 5500"
       id="path466"
       inkscape:connector-curvature="0" />
    <path
       d="m 15996,13913 v 5500"
       id="path468"
       inkscape:connector-curvature="0" />
    <path
       d="M 15996,19413 H 10496"
       id="path470"
       inkscape:connector-curvature="0" />
    <path
       d="M 10496,19413 V 13913"
       id="path472"
       inkscape:connector-curvature="0" />
    <path
       d="m 17996,12163 h 5500"
       id="path474"
       inkscape:connector-curvature="0" />
    <path
       d="m 23496,12163 v 5500"
       id="path476"
       inkscape:connector-curvature="0" />
    <path
       d="M 23496,17663 H 17996"
       id="path478"
       inkscape:connector-curvature="0" />
    <path
       d="M 17996,17663 V 12163"
       id="path480"
       inkscape:connector-curvature="0" />
    <path
       d="m 25496,11163 h 5500"
       id="path482"
       inkscape:connector-curvature="0" />
    <path
       d="m 30996,11163 v 5500"
       id="path484"
       inkscape:connector-curvature="0" />
    <path
       d="M 30996,16663 H 25496"
       id="path486"
       inkscape:connector-curvature="0" />
    <path
       d="M 25496,16663 V 11163"
       id="path488"
       inkscape:connector-curvature="0" />
    <path
       d="m 32996,12163 h 5500"
       id="path490"
       inkscape:connector-curvature="0" />
    <path
       d="m 38496,12163 v 5500"
       id="path492"
       inkscape:connector-curvature="0" />
    <path
       d="M 38496,17663 H 32996"
       id="path494"
       inkscape:connector-curvature="0" />
    <path
       d="M 32996,17663 V 12163"
       id="path496"
       inkscape:connector-curvature="0" />
    <path
       d="m 40496,12913 h 5500"
       id="path498"
       inkscape:connector-curvature="0" />
    <path
       d="m 45996,12913 v 5500"
       id="path500"
       inkscape:connector-curvature="0" />
    <path
       d="M 45996,18413 H 40496"
       id="path502"
       inkscape:connector-curvature="0" />
    <path
       d="M 40496,18413 V 12913"
       id="path504"
       inkscape:connector-curvature="0" />
    <path
       d="m 10496,21413 h 5500"
       id="path506"
       inkscape:connector-curvature="0" />
    <path
       d="m 15996,21413 v 5500"
       id="path508"
       inkscape:connector-curvature="0" />
    <path
       d="M 15996,26913 H 10496"
       id="path510"
       inkscape:connector-curvature="0" />
    <path
       d="M 10496,26913 V 21413"
       id="path512"
       inkscape:connector-curvature="0" />
    <path
       d="m 17996,19663 h 5500"
       id="path514"
       inkscape:connector-curvature="0" />
    <path
       d="m 23496,19663 v 5500"
       id="path516"
       inkscape:connector-curvature="0" />
    <path
       d="M 23496,25163 H 17996"
       id="path518"
       inkscape:connector-curvature="0" />
    <path
       d="M 17996,25163 V 19663"
       id="path520"
       inkscape:connector-curvature="0" />
    <path
       d="m 25496,18663 h 5500"
       id="path522"
       inkscape:connector-curvature="0" />
    <path
       d="m 30996,18663 v 5500"
       id="path524"
       inkscape:connector-curvature="0" />
    <path
       d="M 30996,24163 H 25496"
       id="path526"
       inkscape:connector-curvature="0" />
    <path
       d="M 25496,24163 V 18663"
       id="path528"
       inkscape:connector-curvature="0" />
    <path
       d="m 32996,19663 h 5500"
       id="path530"
       inkscape:connector-curvature="0" />
    <path
       d="m 38496,19663 v 5500"
       id="path532"
       inkscape:connector-curvature="0" />
    <path
       d="M 38496,25163 H 32996"
       id="path534"
       inkscape:connector-curvature="0" />
    <path
       d="M 32996,25163 V 19663"
       id="path536"
       inkscape:connector-curvature="0" />
    <path
       d="m 40496,20413 h 5500"
       id="path538"
       inkscape:connector-curvature="0" />
    <path
       d="m 45996,20413 v 5500"
       id="path540"
       inkscape:connector-curvature="0" />
    <path
       d="M 45996,25913 H 40496"
       id="path542"
       inkscape:connector-curvature="0" />
    <path
       d="M 40496,25913 V 20413"
       id="path544"
       inkscape:connector-curvature="0" />
    <path
       d="m 51239,29406 4763,2750"
       id="path546"
       inkscape:connector-curvature="0" />
    <path
       d="m 56002,32156 -2750,4763"
       id="path548"
       inkscape:connector-curvature="0" />
    <path
       d="M 53252,36919 48489,34169"
       id="path550"
       inkscape:connector-curvature="0" />
    <path
       d="m 48489,34169 2750,-4763"
       id="path552"
       inkscape:connector-curvature="0" />
    <path
       d="m 10496,28913 h 5500"
       id="path554"
       inkscape:connector-curvature="0" />
    <path
       d="m 15996,28913 v 5500"
       id="path556"
       inkscape:connector-curvature="0" />
    <path
       d="M 15996,34413 H 10496"
       id="path558"
       inkscape:connector-curvature="0" />
    <path
       d="M 10496,34413 V 28913"
       id="path560"
       inkscape:connector-curvature="0" />
    <path
       d="m 17996,27163 h 5500"
       id="path562"
       inkscape:connector-curvature="0" />
    <path
       d="m 23496,27163 v 5500"
       id="path564"
       inkscape:connector-curvature="0" />
    <path
       d="M 23496,32663 H 17996"
       id="path566"
       inkscape:connector-curvature="0" />
    <path
       d="M 17996,32663 V 27163"
       id="path568"
       inkscape:connector-curvature="0" />
    <path
       d="m 25496,26163 h 5500"
       id="path570"
       inkscape:connector-curvature="0" />
    <path
       d="m 30996,26163 v 5500"
       id="path572"
       inkscape:connector-curvature="0" />
    <path
       d="M 30996,31663 H 25496"
       id="path574"
       inkscape:connector-curvature="0" />
    <path
       d="M 25496,31663 V 26163"
       id="path576"
       inkscape:connector-curvature="0" />
    <path
       d="m 32996,27163 h 5500"
       id="path578"
       inkscape:connector-curvature="0" />
    <path
       d="m 38496,27163 v 5500"
       id="path580"
       inkscape:connector-curvature="0" />
    <path
       d="M 38496,32663 H 32996"
       id="path582"
       inkscape:connector-curvature="0" />
    <path
       d="M 32996,32663 V 27163"
       id="path584"
       inkscape:connector-curvature="0" />
    <path
       d="m 40496,27913 h 5500"
       id="path586"
       inkscape:connector-curvature="0" />
    <path
       d="m 45996,27913 v 5500"
       id="path588"
       inkscape:connector-curvature="0" />
    <path
       d="M 45996,33413 H 40496"
       id="path590"
       inkscape:connector-curvature="0" />
    <path
       d="M 40496,33413 V 27913"
       id="path592"
       inkscape:connector-curvature="0" />
    <path
       d="M 2996,36413 H 8496"
       id="path594"
       inkscape:connector-curvature="0" />
    <path
       d="m 8496,36413 v 5500"
       id="path596"
       inkscape:connector-curvature="0" />
    <path
       d="M 8496,41913 H 2996"
       id="path598"
       inkscape:connector-curvature="0" />
    <path
       d="M 2996,41913 V 36413"
       id="path600"
       inkscape:connector-curvature="0" />
    <path
       d="m 10496,36413 h 5500"
       id="path602"
       inkscape:connector-curvature="0" />
    <path
       d="m 15996,36413 v 5500"
       id="path604"
       inkscape:connector-curvature="0" />
    <path
       d="M 15996,41913 H 10496"
       id="path606"
       inkscape:connector-curvature="0" />
    <path
       d="M 10496,41913 V 36413"
       id="path608"
       inkscape:connector-curvature="0" />
    <path
       d="m 17996,34663 h 5500"
       id="path610"
       inkscape:connector-curvature="0" />
    <path
       d="m 23496,34663 v 5500"
       id="path612"
       inkscape:connector-curvature="0" />
    <path
       d="M 23496,40163 H 17996"
       id="path614"
       inkscape:connector-curvature="0" />
    <path
       d="M 17996,40163 V 34663"
       id="path616"
       inkscape:connector-curvature="0" />
    <path
       d="m 25496,33663 h 5500"
       id="path618"
       inkscape:connector-curvature="0" />
    <path
       d="m 30996,33663 v 5500"
       id="path620"
       inkscape:connector-curvature="0" />
    <path
       d="M 30996,39163 H 25496"
       id="path622"
       inkscape:connector-curvature="0" />
    <path
       d="M 25496,39163 V 33663"
       id="path624"
       inkscape:connector-curvature="0" />
    <path
       d="M 1996,6413 H 7496"
       id="path626"
       inkscape:connector-curvature="0" />
    <path
       d="m 7496,6413 v 5500"
       id="path628"
       inkscape:connector-curvature="0" />
    <path
       d="M 7496,11913 H 1996"
       id="path630"
       inkscape:connector-curvature="0" />
    <path
       d="M 1996,11913 V 6413"
       id="path632"
       inkscape:connector-curvature="0" />
    <path
       d="M 1996,13913 H 7496"
       id="path634"
       inkscape:connector-curvature="0" />
    <path
       d="m 7496,13913 v 5500"
       id="path636"
       inkscape:connector-curvature="0" />
    <path
       d="M 7496,19413 H 1996"
       id="path638"
       inkscape:connector-curvature="0" />
    <path
       d="M 1996,19413 V 13913"
       id="path640"
       inkscape:connector-curvature="0" />
    <path
       d="M 1996,21413 H 7496"
       id="path642"
       inkscape:connector-curvature="0" />
    <path
       d="m 7496,21413 v 5500"
       id="path644"
       inkscape:connector-curvature="0" />
    <path
       d="M 7496,26913 H 1996"
       id="path646"
       inkscape:connector-curvature="0" />
    <path
       d="M 1996,26913 V 21413"
       id="path648"
       inkscape:connector-curvature="0" />
    <path
       d="M 1996,28913 H 7496"
       id="path650"
       inkscape:connector-curvature="0" />
    <path
       d="m 7496,28913 v 5500"
       id="path652"
       inkscape:connector-curvature="0" />
    <path
       d="M 7496,34413 H 1996"
       id="path654"
       inkscape:connector-curvature="0" />
    <path
       d="M 1996,34413 V 28913"
       id="path656"
       inkscape:connector-curvature="0" />
    <path
       d="m 36301,35295 5313,1423"
       id="path658"
       inkscape:connector-curvature="0" />
    <path
       d="m 41614,36718 -1424,5313"
       id="path660"
       inkscape:connector-curvature="0" />
    <path
       d="M 40190,42031 34878,40607"
       id="path662"
       inkscape:connector-curvature="0" />
    <path
       d="m 34878,40607 1423,-5312"
       id="path664"
       inkscape:connector-curvature="0" />
    <path
       d="m 57739,33156 4763,2750"
       id="path666"
       inkscape:connector-curvature="0" />
    <path
       d="m 62502,35906 -2750,4763"
       id="path668"
       inkscape:connector-curvature="0" />
    <path
       d="M 59752,40669 54989,37919"
       id="path670"
       inkscape:connector-curvature="0" />
    <path
       d="m 54989,37919 2750,-4763"
       id="path672"
       inkscape:connector-curvature="0" />
    <path
       d="m 51252,40406 -2750,4763"
       id="path674"
       inkscape:connector-curvature="0" />
    <path
       d="M 48502,45169 43739,42419"
       id="path676"
       inkscape:connector-curvature="0" />
    <path
       d="m 43739,42419 2750,-4763"
       id="path678"
       inkscape:connector-curvature="0" />
    <path
       d="m 46489,37656 4763,2750"
       id="path680"
       inkscape:connector-curvature="0" />
    <path
       d="m 57752,44156 -2750,4763"
       id="path682"
       inkscape:connector-curvature="0" />
    <path
       d="M 55002,48919 50239,46169"
       id="path684"
       inkscape:connector-curvature="0" />
    <path
       d="m 50239,46169 2750,-4763"
       id="path686"
       inkscape:connector-curvature="0" />
    <path
       d="m 52989,41406 4763,2750"
       id="path688"
       inkscape:connector-curvature="0" />
    <path
       d="m 53496,18663 v 5500"
       id="path690"
       inkscape:connector-curvature="0" />
    <path
       d="M 53496,24163 H 47996"
       id="path692"
       inkscape:connector-curvature="0" />
    <path
       d="M 47996,24163 V 18663"
       id="path694"
       inkscape:connector-curvature="0" />
    <path
       d="m 47996,18663 h 5500"
       id="path696"
       inkscape:connector-curvature="0" />
  </g>
  <g
     style="fill:#000000;fill-opacity:0;stroke:#000000;stroke-width:39.37009811;stroke-linecap:round;stroke-linejoin:round;stroke-opacity:1"
     id="g738"
     transform="translate(0,-2083.3381)">
    <path
       d="M 52496,2113 H 2046"
       id="path700"
       inkscape:connector-curvature="0" />
    <path
       d="M 54496,4113 V 8113"
       id="path702"
       inkscape:connector-curvature="0" />
    <path
       d="M 46,4113 V 5413"
       id="path704"
       inkscape:connector-curvature="0" />
    <path
       d="M 46,4113 2046,2113"
       id="path706"
       inkscape:connector-curvature="0" />
    <path
       d="M 54496,4113 52496,2113"
       id="path708"
       inkscape:connector-curvature="0" />
    <path
       d="m 29353.254,42295.679 h -4000"
       id="path710"
       inkscape:connector-curvature="0"
       sodipodi:nodetypes="cc" />
    <path
       d="m 54496,30113 9400,5400"
       id="path712"
       inkscape:connector-curvature="0" />
    <path
       d="M 54496,8113 V 30113"
       id="path714"
       inkscape:connector-curvature="0" />
    <path
       d="M 53752.24,53331.902 63896,35513"
       id="path716"
       inkscape:connector-curvature="0"
       sodipodi:nodetypes="cc" />
    <path
       d="m 38003.254,44595.679 -8650,-2300"
       id="path720"
       inkscape:connector-curvature="0"
       sodipodi:nodetypes="cc" />
    <path
       d="M 53752.24,53331.902 38003.254,44595.679"
       id="path722"
       inkscape:connector-curvature="0"
       sodipodi:nodetypes="cc" />
    <path
       d="m 24353.254,43295.679 1000,-1000"
       id="path724"
       inkscape:connector-curvature="0"
       sodipodi:nodetypes="cc" />
    <path
       d="m 18553.254,43295.679 h 5800"
       id="path726"
       inkscape:connector-curvature="0"
       sodipodi:nodetypes="cc" />
    <path
       d="m 16853.254,44995.679 1700,-1700"
       id="path728"
       inkscape:connector-curvature="0"
       sodipodi:nodetypes="cc" />
    <path
       d="M 1946,44995.679 H 16853.254"
       id="path730"
       inkscape:connector-curvature="0"
       sodipodi:nodetypes="cc" />
    <path
       d="m 1946,37313 0,7682.679"
       id="path732"
       inkscape:connector-curvature="0"
       sodipodi:nodetypes="cc" />
    <path
       d="m 46,35413 1900,1900"
       id="path734"
       inkscape:connector-curvature="0" />
    <path
       d="M 46,5413 V 35413"
       id="path736"
       inkscape:connector-curvature="0" />
  </g>
</svg>
